<svg width="111" height="78" viewBox="0 0 111 78" fill="none" xmlns="http://www.w3.org/2000/svg">
<path d="M63.1329 71.0997L64.2622 68.6977L65.4311 71.0997H63.1373H63.1329ZM59.6131 74.7158H61.4235L62.4034 72.637H66.165L67.1844 74.7158H69.0916L64.2974 65.23L59.6131 74.7158ZM51.822 74.7158H57.7015V73.1829H53.4742V65.3785H51.822V74.7202V74.7158ZM37.747 71.0997L38.8764 68.6977L40.0453 71.0997H37.747ZM37.022 72.637H40.7835L41.803 74.7158H43.7101L38.9159 65.23L34.2316 74.7158H36.042L37.022 72.637ZM4.56568 68.3395C4.56568 69.3789 3.80107 69.8462 2.82114 69.8462C2.44323 69.8462 2.04335 69.82 1.65226 69.7807V66.9114C2.09608 66.8983 2.50036 66.8852 2.83432 66.8852C3.96366 66.8852 4.56568 67.3656 4.56568 68.3395ZM6.31021 68.3526C6.31021 66.8197 5.43575 65.3523 2.67173 65.3523C2.01259 65.3523 0.522922 65.3785 0 65.3785V74.7202H1.65665V71.3442C2.06093 71.3835 2.59703 71.3835 2.87827 71.3835C5.11936 71.3835 6.31461 69.9423 6.31461 68.3526M8.82815 74.7158H14.7077V73.1829H10.4804V65.3785H8.82815V74.7202V74.7158ZM22.4329 71.0997H20.1347L21.264 68.6977L22.4329 71.0997ZM26.0977 74.7158L21.3036 65.23L16.6192 74.7158H18.4297L19.4096 72.637H23.1711L24.1906 74.7158H26.0977ZM33.0539 65.3741L30.2196 71.4971L27.293 65.3741H25.3859L30.18 74.8599L34.8644 65.3741H33.0539ZM57.1171 49.1583C57.0336 51.259 55.9087 52.7352 54.4717 53.5606C53.1534 54.3161 51.2595 54.5651 49.5018 53.6567C53.0524 54.8751 55.4429 52.1063 55.7329 50.3069C55.2583 50.6782 54.7046 50.8922 54.0279 50.8922C52.6745 50.8965 51.6198 50.0405 51.2419 48.8395C50.8201 47.4944 51.1189 45.2714 54.5508 43.4241C56.2031 45.516 57.1874 47.3459 57.1171 49.154M49.4051 8.48567C49.2205 8.95297 48.6405 9.16697 47.9506 8.92676C47.621 8.81321 47.3925 9.25431 47.0014 9.56002C47.1376 8.91803 47.4453 7.76506 48.1352 7.96159C48.7196 8.12755 48.9173 8.44199 49.4051 8.4813M67.5711 39.4498C67.492 39.38 67.4261 39.2708 67.4042 39.1354C67.3778 38.9825 67.4129 38.8035 67.536 38.6463C68.5027 37.419 70.1901 34.9122 69.5046 31.7765C68.5115 27.217 64.1612 25.8675 64.6357 23.7101C64.8511 24.3914 65.3828 24.9067 65.8134 25.0727C65.7299 24.6141 65.7871 24.173 65.9804 23.7669C66.3056 23.0768 67.0306 22.5353 67.9622 22.5571C66.9823 21.7186 65.5146 21.8496 64.6973 22.7274C63.836 23.6533 63.8008 24.7975 64.5435 25.9898C65.0884 26.8633 65.7255 28.0774 65.7607 29.1605C65.8222 30.8069 64.3985 32.1652 63.3878 34.3532C62.8429 35.528 62.3639 36.7639 62.3375 38.0043C62.0827 38.0261 61.6872 38.0654 61.2873 38.1091C60.1184 33.1172 58.3695 28.1516 58.4002 23.3214C58.4046 22.5746 58.8836 22.3038 59.345 22.4479C59.7185 22.5658 59.9207 23.0768 59.6702 23.4524C59.9866 23.2952 60.2195 22.9327 60.2107 22.5527C60.1799 21.1072 58.3299 19.3078 57.9564 18.2116C57.8378 17.871 57.9476 17.5784 58.1585 17.4124C58.3387 17.2683 58.5452 17.2421 58.7386 17.2858C59.1429 17.3775 59.4241 17.8797 59.1253 18.3252C59.5867 18.085 59.7229 17.6133 59.6658 17.2334C59.222 14.0802 57.0644 10.2108 54.4102 7.60347C53.9224 7.76943 53.0348 7.94849 51.9143 7.60347C51.9362 7.60347 51.9626 7.59474 51.9846 7.59037C53.7159 7.43315 55.5703 6.35442 56.4096 6.31075C55.3638 5.50717 53.8653 5.44602 52.8327 5.85218C52.6745 5.91333 52.5382 5.94826 52.4196 5.96573C52.1208 5.76484 51.822 5.58578 51.5188 5.42419C51.5583 2.36271 57.6752 2.80381 57.7499 0C55.9614 2.46753 50.7981 0.270773 48.6757 4.65118C48.6449 4.65118 48.6141 4.65118 48.579 4.65118C46.1841 4.76909 46.0215 6.75622 44.6944 6.60336C44.6417 7.02699 44.9493 7.46809 45.5513 7.49429C45.5513 8.63852 43.7804 9.44647 42.5632 10.9357C41.9084 11.7349 41.4251 12.4468 41.4426 12.818C41.447 12.9665 41.4954 12.9753 41.5437 12.9796C41.6536 12.6739 41.8074 12.4905 42.0798 12.4119C42.3171 12.342 42.6555 12.0931 42.7214 11.866C42.9675 12.0581 42.8796 12.5647 42.673 12.7656C42.2995 13.1281 41.9831 13.067 41.803 13.3115C41.6843 13.4731 41.7151 13.7657 41.7415 13.8531C41.7898 14.0059 41.948 14.1457 42.2424 13.8662C43.0817 13.0713 44.1539 12.7525 44.1935 12.3027C44.523 12.6652 44.6505 13.1019 44.255 13.3377C43.6354 13.709 43.2838 13.709 42.7653 14.0758C42.5764 14.2112 42.5061 14.4863 42.695 14.5082C43.2311 14.565 43.4333 14.8314 44.2989 14.2112C44.5362 14.0409 44.7955 14.2636 44.8966 14.3684C45.3492 14.8445 45.4766 15.3554 45.4107 15.7791C45.3404 16.2507 44.9625 16.6219 44.4791 16.6831C44.3473 16.7006 44.211 16.6918 44.0704 16.6569C44.589 17.2639 45.5645 17.4517 46.3071 16.932C47.0366 16.4167 47.3793 15.3685 46.4829 13.805C47.2827 13.6522 48.3241 13.4644 49.2205 13.3115C49.9324 13.1893 50.5037 12.9622 50.9431 12.6477C51.6594 12.1324 52.0681 11.2633 52.0109 10.3287C52.8502 11.9489 51.9494 13.2591 50.6135 13.7614C50.6751 17.3032 47.7265 19.4956 46.2148 22.3125C45.7447 23.1904 45.5205 24.0114 45.3975 24.7975C45.3711 24.9548 45.3536 25.2255 45.2437 25.3391C45.1558 25.4264 45.0372 25.4745 44.8306 25.3347C44.4044 25.0465 41.28 22.4436 40.9681 22.2383C40.6561 22.033 40.0145 21.9151 39.3026 21.9588C39.0302 21.9763 37.4043 22.0854 36.71 22.1815C36.0157 22.2776 35.2862 22.282 34.7765 22.7187C34.2667 23.1554 33.3659 23.6271 32.9353 24.0813C31.951 25.1295 32.0564 26.4571 31.9641 27.217C32.2673 27.1646 33.5417 26.6318 34.0075 26.0116C34.1613 25.8064 34.2096 25.4352 34.2272 25.2605C34.3019 24.4787 34.8512 24.2473 35.2027 24.3826C35.6334 24.5486 35.6861 25.2212 36.3189 25.6448C36.7759 25.9505 37.189 25.5924 37.3691 25.3434C37.167 25.2736 36.8638 25.0552 36.8638 24.6272C36.8638 24.3215 37.0571 23.8673 37.7734 23.828C38.1821 23.8062 38.6303 23.7669 39.0609 23.7756C39.5091 23.7843 39.8211 24.0507 39.9749 24.2473C40.7439 25.2037 42.4445 27.5577 43.0114 28.2433C43.0114 28.2433 41.2976 28.9334 39.7508 29.4487C39.0785 29.6714 38.8939 30.5187 38.7841 31.1389C38.6742 31.7852 38.6215 31.9643 39.3114 33.0081C39.6542 33.5278 40.1683 34.4231 40.7659 35.2703C40.9197 35.4887 41.1131 35.7638 41.4382 36.0084C41.6228 36.1482 42.0095 36.2748 42.5105 36.5718C43.1125 36.9299 43.7584 37.2706 44.4439 37.3142C45.5645 37.3841 46.4785 36.8426 47.0366 36.6373C46.4917 36.0695 45.7139 35.528 45.0899 35.3795C44.901 35.3358 44.6461 35.3839 44.4396 35.4581C44.0485 35.5935 43.6749 35.7158 43.3102 35.48C43.0729 35.3315 42.9762 35.0563 43.0685 34.803C43.1916 34.4667 43.5387 34.1043 43.6442 33.6413C43.7453 33.2002 43.609 32.8334 42.9191 32.6936C42.9411 32.877 42.9015 33.1522 42.673 33.3575C42.4445 33.5627 42.0578 33.6413 41.7283 33.4142C41.614 33.3356 41.5129 33.2221 41.4207 33.0648C41.1438 32.615 40.9285 32.2875 40.9021 32.056C40.8538 31.6586 41.135 31.1476 41.7283 30.9511C42.2644 30.772 43.2795 30.8375 44.1803 30.9161C45.314 31.0166 47.8407 31.3703 48.7591 31.1083C49.6776 30.8506 50.6443 29.5535 51.945 28.9508C50.8157 30.3265 50.2268 31.7678 49.3612 32.0516C48.5175 32.3268 47.8451 32.1608 46.8213 32.1084C48.2714 35.1306 51.1277 38.8865 52.3493 40.5024C49.3875 41.9654 46.5356 44.4111 46.6103 48.5862C46.685 52.8793 50.24 56.0019 54.2125 56.0368C57.6312 56.0674 60.905 53.8663 61.8058 49.9619C62.4869 47.014 62.3112 44.0268 61.9552 41.6029C62.3068 41.5811 62.6232 41.568 62.9527 41.5549C64.293 45.0575 69.9221 47.4333 69.2629 50.9533C69.6936 50.8791 70.3703 50.6389 70.946 50.0362C70.5856 51.0057 69.6452 51.5429 68.8147 51.5822C68.1424 51.6128 67.035 51.3464 66.4857 50.1235C66.3144 50.3725 66.1737 50.7786 66.2045 51.211C66.2441 51.7438 66.5297 52.3159 67.18 52.6609C68.305 53.2592 69.6365 52.6871 70.5944 51.5691C71.6183 50.3768 73.8154 45.1448 67.5667 39.4673M78.5833 75.384V69.6978H74.769V71.2307H77.0365V72.6981C76.6893 73.03 75.8148 73.3401 75.0898 73.3401C73.1827 73.3401 71.9083 72.0474 71.9083 70.0559C71.9083 68.0644 73.2354 66.7717 75.0502 66.7717C75.8676 66.7717 76.7025 67.0512 77.1727 67.4923L77.8714 66.1865C77.1068 65.5838 76.1928 65.2387 74.8525 65.2387C71.9786 65.2387 70.1682 67.3744 70.1682 70.0559C70.1682 72.9645 71.9918 74.873 75.0678 74.873C75.6435 74.873 76.3026 74.7507 76.9354 74.5411V75.2355C76.9354 76.0784 76.452 76.4627 75.8061 76.4627C75.1601 76.4627 74.7031 76.0216 74.5317 75.6111L73.2574 76.4802C73.5386 77.1484 74.479 78 75.8632 78C77.6473 78 78.5876 76.9038 78.5876 75.384M88.967 70.8595V65.3872H87.3279V70.5232C87.3279 72.34 86.6556 73.3401 85.2318 73.3401C83.6059 73.3401 82.8809 72.1653 82.8809 70.4184V65.3872H81.2286V70.7634C81.2286 73.4973 82.8941 74.873 85.2318 74.873C87.2049 74.873 88.9626 73.7113 88.9626 70.8551M93.3261 68.9728L99.8121 74.8686V65.3829H98.2697V71.1739L91.7837 65.2344V74.7245H93.3261V68.9728ZM107.335 71.1084H105.037L106.166 68.7064L107.335 71.1084ZM111 74.7245L106.206 65.2387L101.521 74.7245H103.332L104.312 72.6457H108.073L109.093 74.7245H111Z" fill="white"/>
</svg>
