<svg width="17" height="16" viewBox="0 0 17 16" fill="none" xmlns="http://www.w3.org/2000/svg">
<path d="M14.8 6.00001L14.8 2.00001M14.8 2.00001H10.8M14.8 2.00001L8.79999 8M7.46665 2H5.99999C4.87988 2 4.31983 2 3.89201 2.21799C3.51568 2.40973 3.20972 2.71569 3.01797 3.09202C2.79999 3.51984 2.79999 4.07989 2.79999 5.2V10.8C2.79999 11.9201 2.79999 12.4802 3.01797 12.908C3.20972 13.2843 3.51568 13.5903 3.89201 13.782C4.31983 14 4.87988 14 5.99999 14H11.6C12.7201 14 13.2801 14 13.708 13.782C14.0843 13.5903 14.3903 13.2843 14.582 12.908C14.8 12.4802 14.8 11.9201 14.8 10.8V9.33333" stroke="white" stroke-width="1.5" stroke-linecap="round" stroke-linejoin="round"/>
</svg>
