<svg width="72" height="72" viewBox="0 0 72 72" fill="none" xmlns="http://www.w3.org/2000/svg">
<g clip-path="url(#clip0_2_40514)">
<path fill-rule="evenodd" clip-rule="evenodd" d="M0 72H72V0H0V72Z" fill="#E6094C"/>
<path fill-rule="evenodd" clip-rule="evenodd" d="M38.006 61.0057C36.7053 61.7599 34.8321 62.0074 33.0978 61.0999C36.6043 62.3165 38.9664 59.5522 39.2531 57.7592C38.7837 58.1295 38.2367 58.3415 37.5677 58.3449C36.2279 58.3508 35.1896 57.4953 34.8161 56.3006C34.3976 54.9607 34.6952 52.7445 38.0872 50.9025C39.7209 52.9899 40.6902 54.8129 40.6207 56.6165C40.5403 58.7098 39.4266 60.1823 38.006 61.0057ZM31.5677 16.5068C31.2443 16.3923 31.0169 16.8315 30.6291 17.1394C30.7618 16.4975 31.0679 15.3506 31.7475 15.5469C32.3226 15.7129 32.5192 16.0283 33.0034 16.0668C32.8194 16.5334 32.2456 16.7471 31.5677 16.5068ZM50.9508 46.9436C50.8729 46.8722 50.8077 46.7649 50.7853 46.6277C50.7597 46.4757 50.7925 46.2949 50.9138 46.1395C51.8683 44.9145 53.5352 42.415 52.8599 39.2892C51.878 34.742 47.5803 33.3974 48.0481 31.2446C48.259 31.9241 48.7853 32.438 49.211 32.6027C49.1298 32.1449 49.1853 31.7074 49.3757 31.3004C49.6986 30.6108 50.4136 30.0719 51.3327 30.096C50.3634 29.2616 48.9133 29.3895 48.1053 30.2645C47.2531 31.188 47.2182 32.3274 47.9525 33.5157C48.4915 34.3877 49.1188 35.6001 49.1576 36.6752C49.2157 38.3192 47.8106 39.6701 46.811 41.8542C46.2746 43.0273 45.798 44.257 45.7744 45.4934C45.5256 45.5171 45.1344 45.5555 44.7386 45.5956C43.582 40.6173 41.8544 35.6681 41.8872 30.8506C41.8923 30.1061 42.3643 29.8346 42.822 29.9811C43.1887 30.0989 43.3925 30.6086 43.1428 30.9832C43.4548 30.8253 43.6864 30.4659 43.678 30.0859C43.646 28.6437 41.8203 26.8507 41.4498 25.7591C41.3336 25.4179 41.4418 25.1299 41.6506 24.9631C41.8296 24.8199 42.0346 24.7933 42.2245 24.8377C42.6253 24.931 42.9032 25.4297 42.6077 25.8748C43.0632 25.6371 43.1967 25.1658 43.1437 24.787C42.7037 21.6452 40.5727 17.7867 37.9491 15.1854C37.4683 15.3518 36.5912 15.5279 35.483 15.1812C35.5062 15.1774 35.5302 15.1711 35.5533 15.1664C37.2645 15.0115 39.0969 13.9342 39.9239 13.8899C38.8889 13.0892 37.4081 13.0288 36.3875 13.4317C36.2317 13.4933 36.0973 13.5288 35.982 13.5444C35.6864 13.3439 35.3896 13.1644 35.0931 13.0056C35.1323 9.95204 41.1752 10.3925 41.2481 7.59863C39.4822 10.0572 34.3794 7.86932 32.2822 12.2379C32.251 12.2387 32.2199 12.2375 32.1891 12.2391C29.8232 12.3574 29.6603 14.3375 28.3496 14.1842C28.2986 14.609 28.6001 15.0478 29.198 15.0735C29.2022 16.2129 27.4506 17.0207 26.2451 18.5034C25.5988 19.2989 25.1213 20.0092 25.1365 20.3796C25.1424 20.5261 25.1912 20.5379 25.2346 20.5413C25.3445 20.2385 25.494 20.0553 25.7639 19.9746C25.9971 19.9054 26.3331 19.6562 26.3997 19.4307C26.6409 19.6233 26.555 20.1254 26.3496 20.3272C25.982 20.6883 25.667 20.627 25.4915 20.8694C25.3731 21.0329 25.4035 21.3217 25.4317 21.4091C25.4805 21.5633 25.6355 21.7022 25.9277 21.4235C26.7559 20.6308 27.8173 20.3116 27.8561 19.8635C28.1795 20.2233 28.3049 20.6612 27.9155 20.896C27.3037 21.2647 26.9546 21.2668 26.4422 21.63C26.254 21.7638 26.1849 22.0409 26.3752 22.0607C26.9028 22.116 27.1024 22.3846 27.9613 21.7638C28.1955 21.5941 28.4519 21.8154 28.5517 21.9218C28.9992 22.3977 29.1247 22.907 29.0607 23.3288C28.9887 23.7984 28.619 24.1713 28.1411 24.2296C28.0123 24.2452 27.8754 24.2401 27.7365 24.2042C28.2506 24.8094 29.2144 24.9977 29.9466 24.477C30.6653 23.9652 31.0056 22.9184 30.1213 21.361C30.9117 21.2068 31.942 21.0231 32.8245 20.8686C33.526 20.7465 34.0906 20.5202 34.5247 20.2043C35.2308 19.6908 35.6367 18.8247 35.5794 17.8932C36.4077 19.5097 35.5205 20.815 34.1997 21.3137C34.2611 24.8432 31.3487 27.0306 29.8557 29.838C29.3904 30.713 29.1715 31.5292 29.0468 32.3168C29.022 32.4726 29.0043 32.7429 28.8936 32.8544C28.8056 32.9426 28.6893 32.9899 28.4851 32.8502C28.0637 32.5609 24.9778 29.9668 24.6704 29.7615C24.363 29.5559 23.7264 29.4385 23.0237 29.4824C22.7529 29.4993 21.1504 29.6066 20.4641 29.7033C19.7778 29.7995 19.0578 29.8021 18.5554 30.237C18.0531 30.6711 17.1592 31.1412 16.7361 31.5947C15.7601 32.6399 15.8662 33.962 15.7773 34.7183C16.0767 34.6647 17.3378 34.1377 17.7954 33.5174C17.9453 33.3138 17.9954 32.9439 18.0123 32.7703C18.0877 31.9925 18.6287 31.759 18.9761 31.8949C19.4009 32.0609 19.4527 32.7323 20.0759 33.1534C20.5289 33.4595 20.9352 33.1018 21.1138 32.8514C20.9163 32.7813 20.614 32.5651 20.6127 32.1356C20.6114 31.8329 20.8051 31.3789 21.5104 31.3417C21.9129 31.3202 22.358 31.2801 22.7845 31.2885C23.23 31.2974 23.5344 31.563 23.6898 31.7577C24.451 32.7116 26.1277 35.0566 26.6885 35.7416C26.6885 35.7416 24.9976 36.4307 23.4658 36.9425C22.8005 37.1651 22.6169 38.0088 22.5121 38.6275C22.403 39.2706 22.3504 39.4513 23.0346 40.4919C23.3752 41.0092 23.8801 41.901 24.4729 42.7486C24.6241 42.9652 24.8148 43.2397 25.139 43.4867C25.3218 43.6261 25.702 43.7507 26.1988 44.0471C26.7954 44.4027 27.43 44.7451 28.1091 44.7886C29.2148 44.8592 30.1209 44.3178 30.6712 44.1138C30.1344 43.5496 29.3634 43.0104 28.7466 42.8588C28.5601 42.8149 28.3087 42.8643 28.1062 42.9361C27.7222 43.072 27.3517 43.1915 26.9896 42.958C26.7567 42.8081 26.6565 42.5378 26.75 42.2824C26.8717 41.9479 27.2123 41.5864 27.3192 41.1236C27.4211 40.6819 27.2818 40.3183 26.603 40.1785C26.6266 40.3618 26.5845 40.6371 26.3576 40.8398C26.1302 41.0429 25.7491 41.1228 25.4237 40.8977C25.3125 40.8208 25.2115 40.706 25.118 40.5497C24.8464 40.0991 24.6317 39.7761 24.6047 39.5451C24.558 39.1498 24.8346 38.6414 25.4203 38.4442C25.95 38.2656 26.9521 38.3323 27.8418 38.4108C28.9601 38.5092 31.4569 38.8631 32.3664 38.6034C33.2754 38.3441 34.2291 37.054 35.5155 36.4535C34.4026 37.8243 33.8169 39.263 32.9647 39.5451C32.1323 39.8208 31.4666 39.654 30.4548 39.6029C31.8851 42.616 34.7075 46.3583 35.915 47.9731C32.9875 49.4334 30.1731 51.8696 30.2439 56.035C30.3163 60.3157 33.8291 63.428 37.755 63.4622C41.1327 63.4922 44.3677 61.2992 45.2586 57.4057C45.9314 54.4658 45.7567 51.4895 45.4056 49.0711C45.755 49.0508 46.0662 49.0352 46.39 49.0242C47.7159 52.5173 53.2771 54.8864 52.6224 58.3939C53.0493 58.3183 53.7188 58.0793 54.2868 57.4775C53.9319 58.4433 53.0026 58.9817 52.1799 59.0172C51.5138 59.0459 50.4216 58.782 49.8797 57.5637C49.7108 57.8103 49.5723 58.217 49.6034 58.6477C49.6422 59.1802 49.9268 59.7486 50.5698 60.0957C51.6797 60.6941 52.9942 60.1227 53.942 59.0066C54.9517 57.8175 57.1239 52.6018 50.9508 46.9436Z" fill="white"/>
</g>
<defs>
<clipPath id="clip0_2_40514">
<rect width="72" height="72" fill="white"/>
</clipPath>
</defs>
</svg>
